PathFileType	3	(X/Y/Z)	D:\Vicon Setup\UG\Test1\New Session\NewSession09.trc
DataRate	CameraRate	NumFrames	NumMarkers	Units	OrigDataRate	OrigDataStartFrame	OrigNumFrames
100.0	100.0	4	27	mm	100.0	798	911	
Frame#	Time	Sternum			LShoulder			RShoulder			LASIS			RASIS			RPSIS			LPSIS			RKneeLateral			RKneeMedial			RFibulaHead			RMidShank			RAnkleLateral			RAnkleMedial			RHeel			RMT5			RMT2			RToe			LKneeLateral			LKneeMedial			LFibulaHead			LMidShank			LAnkleLateral			LAnkleMedial			LHeel			LMT5			LMT2			LToe			
		X1	Y1	Z1	X2	Y2	Z2	X3	Y3	Z3	X4	Y4	Z4	X5	Y5	Z5	X6	Y6	Z6	X7	Y7	Z7	X8	Y8	Z8	X9	Y9	Z9	X10	Y10	Z10	X11	Y11	Z11	X12	Y12	Z12	X13	Y13	Z13	X14	Y14	Z14	X15	Y15	Z15	X16	Y16	Z16	X17	Y17	Z17	X18	Y18	Z18	X19	Y19	Z19	X20	Y20	Z20	X21	Y21	Z21	X22	Y22	Z22	X23	Y23	Z23	X24	Y24	Z24	X25	Y25	Z25	X26	Y26	Z26	X27	Y27	Z27	
798	7.97	259.29529	1386.0591	-1602.7925	74.652863	1439.0542	-1490.0115	446.70236	1412.762	-1519.7949	138.07098	996.14868	-1603.6034	397.92133	1004.3001	-1600.7144	325.03583	1018.1851	-1426.1903	194.69919	1015.5582	-1421.6483	447.21545	538.51794	-1480.4209	322.7901	498.08896	-1525.6636	457.50473	458.18869	-1471.5463	404.00778	287.25333	-1518.0847	474.99673	92.876022	-1459.7581	404.78418	119.08221	-1522.1035	405.6496	61.305252	-1404.5859	553.74878	32.417973	-1596.8143	489.12628	63.051544	-1616.3038	495.05927	44.327168	-1669.2032	88.802292	522.3573	-1502.8801	218.47414	494.06934	-1527.1383	83.542633	461.7308	-1483.3867	144.49565	300.08426	-1519.1893	79.22966	100.749	-1449.1764	156.86334	114.0685	-1499.4298	145.6609	63.597897	-1386.5228	13.574652	43.863594	-1572.8357	72.722763	61.520252	-1600.9475	58.777195	41.827831	-1660.5652
799	7.98	259.30994	1386.0352	-1602.6888	74.649055	1439.0574	-1489.8927	446.72202	1412.7119	-1519.6865	138.07474	996.13757	-1603.5233	397.92374	1004.2666	-1600.6292	325.03397	1018.1755	-1426.1281	194.6944	1015.5473	-1421.5829	447.22446	538.49719	-1480.3828	322.79529	498.0636	-1525.6217	457.50287	458.18774	-1471.4888	404.02155	287.22653	-1518.0526	475.00858	92.861427	-1459.7659	404.79974	119.06207	-1522.105	405.65598	61.288486	-1404.5876	553.76819	32.399887	-1596.8177	489.14972	63.035809	-1616.3062	495.07797	44.308064	-1669.1997	88.796745	522.35284	-1502.8438	218.48749	494.04358	-1527.0831	83.537544	461.72708	-1483.35	144.50804	300.06076	-1519.1591	79.224701	100.74223	-1449.1755	156.87581	114.04791	-1499.4231	145.68024	63.580097	-1386.5225	13.585758	43.84948	-1572.8387	72.73526	61.496353	-1600.9446	58.792763	41.802681	-1660.5605
800	7.99	259.32501	1386.0138	-1602.5753	74.643066	1439.0665	-1489.7698	446.74982	1412.6572	-1519.5706	138.07478	996.13281	-1603.4417	397.92758	1004.2336	-1600.5408	325.04019	1018.1548	-1426.0743	194.70308	1015.5288	-1421.526	447.23709	538.47119	-1480.344	322.7962	498.04446	-1525.5803	457.50565	458.18518	-1471.426	404.03445	287.20996	-1518.0247	475.0238	92.839149	-1459.7744	404.81476	119.04604	-1522.1064	405.67343	61.265366	-1404.5894	553.79102	32.379993	-1596.8177	489.18182	63.040154	-1616.3196	495.09766	44.285919	-1669.1932	88.797318	522.34576	-1502.804	218.50276	494.01627	-1527.0139	83.540077	461.71988	-1483.3094	144.51918	300.04062	-1519.1295	79.229019	100.73061	-1449.1709	156.89334	114.02167	-1499.4098	145.70236	63.558197	-1386.5237	13.596413	43.839325	-1572.8423	72.747787	61.478745	-1600.9421	58.812141	41.776783	-1660.5555
801	8	259.33817	1386.0005	-1602.4552	74.64344	1439.0775	-1489.6458	446.77719	1412.6083	-1519.4468	138.06888	996.13892	-1603.3577	397.92969	1004.2118	-1600.452	325.05045	1018.1277	-1426.0245	194.71991	1015.5081	-1421.4686	447.24765	538.44611	-1480.3038	322.79095	498.03787	-1525.5402	457.50888	458.18362	-1471.3618	404.043	287.20789	-1518.0028	475.03931	92.815994	-1459.7806	404.82571	119.03964	-1522.106	405.69672	61.243355	-1404.59	553.81165	32.363972	-1596.8138	489.21603	63.069962	-1616.3439	495.11444	44.266644	-1669.1838	88.80175	522.33978	-1502.7601	218.5155	493.9953	-1526.9379	83.546593	461.71265	-1483.2656	144.52348	300.0311	-1519.1016	79.24028	100.71764	-1449.1631	156.91063	113.99782	-1499.3921	145.7236	63.537926	-1386.5259	13.603778	43.836529	-1572.845	72.756508	61.472469	-1600.9418	58.830727	41.757416	-1660.5507
